<svg width="60" height="60" viewBox="0 0 60 60" fill="none" xmlns="http://www.w3.org/2000/svg">
<path d="M35 5C33.227 5 31.6983 5.66395 30.2002 6.32324C25.582 4.18324 19.9608 4.86342 16.1621 8.66211C15.3603 9.46395 14.7385 10.3516 14.248 11.2891L14.1748 11.25C12.6575 13.8768 12.2679 16.8315 12.7539 19.6191C8.18873 22.182 5 26.9067 5 32.5C5 37.0495 7.21622 40.9701 10.415 43.7109C11.6022 50.0804 17.0437 55 23.75 55C26.0553 55 28.0864 54.1101 30 53.1006C31.9136 54.1101 33.9447 55 36.25 55C42.9563 55 48.3978 50.0804 49.585 43.7109C52.7838 40.9701 55 37.0495 55 32.5C55 26.9053 51.8105 22.1741 47.2461 19.6094C47.3437 19.0472 47.4257 18.4873 47.4463 17.915C47.4628 17.7759 47.5 17.6475 47.5 17.5C47.5 16.9838 47.4591 16.4769 47.3975 15.9766C47.3941 15.9486 47.3864 15.9215 47.3828 15.8936C47.3104 15.3369 47.1654 14.8091 47.0215 14.2773C46.8814 13.7502 46.7462 13.2233 46.5332 12.71C46.5205 12.6796 46.512 12.6475 46.499 12.6172C46.3022 12.1532 46.0834 11.697 45.8252 11.25L45.7715 11.2842C43.6026 7.55147 39.6043 5 35 5ZM35 10C37.9012 10 40.3666 11.6296 41.6162 14.0137C41.7708 14.3065 41.9037 14.6052 42.0166 14.9072C42.0947 15.1208 42.1628 15.339 42.2217 15.5615C42.2835 15.7882 42.3333 16.0164 42.373 16.2451C42.4249 16.5564 42.4578 16.8737 42.4707 17.1973C42.4774 17.3524 42.4884 17.5065 42.4854 17.6611C42.4759 18.0237 42.4474 18.3843 42.3779 18.7451C42.3771 18.7501 42.3739 18.7547 42.373 18.7598C42.2933 19.1693 42.1789 19.5799 42.0312 19.9951L41.7383 20.8252C41.1038 22.1057 40.0921 23.2196 38.75 23.9941L41.25 28.3252C43.0415 27.2913 44.4309 25.8448 45.4736 24.2041C48.1878 25.9811 50 28.9973 50 32.5C50 35.8178 48.3797 38.7061 45.8887 40.5371L45.0146 41.1816L44.8877 42.2607C44.3759 46.6306 40.759 50 36.25 50C34.9008 50 33.6354 49.6971 32.5 49.1553V41.1035C33.9717 41.965 35.6591 42.4978 37.4756 42.5L37.4805 37.5C34.698 37.4966 32.4966 35.289 32.5 32.5049V10.5127C33.2948 10.2141 34.1172 10 35 10ZM25.2686 10.0244C26.0246 10.0575 26.7769 10.2127 27.5 10.4736V25.0049H27.4854C27.4887 27.789 25.2872 29.9966 22.5049 30L22.5098 35C24.3325 34.9978 26.0249 34.4607 27.5 33.5938V49.1553C26.3646 49.6971 25.0992 50 23.75 50C19.241 50 15.6241 46.6306 15.1123 42.2607L14.9854 41.1816L14.1113 40.5371C11.6203 38.7061 10 35.8178 10 32.5C10 28.997 11.8116 25.9825 14.5264 24.2041C15.5691 25.8448 16.9585 27.2913 18.75 28.3252L21.25 23.9941C19.8969 23.2133 18.8756 22.0847 18.2422 20.791L17.9639 20C17.5202 18.7457 17.4248 17.4063 17.6562 16.1182C17.6916 15.9338 17.7286 15.7494 17.7783 15.5664C17.8277 15.3765 17.8747 15.1863 17.9395 15C18.0827 14.6006 18.2558 14.2063 18.4717 13.8232C18.7969 13.244 19.2012 12.6933 19.6973 12.1973C21.2423 10.6522 23.2652 9.93662 25.2686 10.0244Z" fill="#00060C"/>
</svg>
