<svg width="14" height="14" viewBox="0 0 14 14" fill="none" xmlns="http://www.w3.org/2000/svg">
<path d="M4.66667 8.16663C4.50139 8.16663 4.36275 8.11063 4.25075 7.99863C4.13914 7.88701 4.08333 7.74857 4.08333 7.58329C4.08333 7.41801 4.13914 7.27938 4.25075 7.16738C4.36275 7.05576 4.50139 6.99996 4.66667 6.99996C4.83194 6.99996 4.97058 7.05576 5.08258 7.16738C5.19419 7.27938 5.25 7.41801 5.25 7.58329C5.25 7.74857 5.19419 7.88701 5.08258 7.99863C4.97058 8.11063 4.83194 8.16663 4.66667 8.16663ZM7 8.16663C6.83472 8.16663 6.69628 8.11063 6.58467 7.99863C6.47267 7.88701 6.41667 7.74857 6.41667 7.58329C6.41667 7.41801 6.47267 7.27938 6.58467 7.16738C6.69628 7.05576 6.83472 6.99996 7 6.99996C7.16528 6.99996 7.30392 7.05576 7.41592 7.16738C7.52753 7.27938 7.58333 7.41801 7.58333 7.58329C7.58333 7.74857 7.52753 7.88701 7.41592 7.99863C7.30392 8.11063 7.16528 8.16663 7 8.16663ZM9.33333 8.16663C9.16806 8.16663 9.02961 8.11063 8.918 7.99863C8.806 7.88701 8.75 7.74857 8.75 7.58329C8.75 7.41801 8.806 7.27938 8.918 7.16738C9.02961 7.05576 9.16806 6.99996 9.33333 6.99996C9.49861 6.99996 9.63706 7.05576 9.74867 7.16738C9.86067 7.27938 9.91667 7.41801 9.91667 7.58329C9.91667 7.74857 9.86067 7.88701 9.74867 7.99863C9.63706 8.11063 9.49861 8.16663 9.33333 8.16663ZM2.91667 12.8333C2.59583 12.8333 2.32108 12.7192 2.09242 12.4909C1.86414 12.2622 1.75 11.9875 1.75 11.6666V3.49996C1.75 3.17913 1.86414 2.90457 2.09242 2.67629C2.32108 2.44763 2.59583 2.33329 2.91667 2.33329H3.5V1.73538C3.5 1.5701 3.55581 1.43399 3.66742 1.32704C3.77942 1.2201 3.91806 1.16663 4.08333 1.16663C4.24861 1.16663 4.38725 1.22243 4.49925 1.33404C4.61086 1.44604 4.66667 1.58468 4.66667 1.74996V2.33329H9.33333V1.73538C9.33333 1.5701 9.38933 1.43399 9.50133 1.32704C9.61294 1.2201 9.75139 1.16663 9.91667 1.16663C10.0819 1.16663 10.2204 1.22243 10.332 1.33404C10.444 1.44604 10.5 1.58468 10.5 1.74996V2.33329H11.0833C11.4042 2.33329 11.6789 2.44763 11.9076 2.67629C12.1359 2.90457 12.25 3.17913 12.25 3.49996V11.6666C12.25 11.9875 12.1359 12.2622 11.9076 12.4909C11.6789 12.7192 11.4042 12.8333 11.0833 12.8333H2.91667ZM2.91667 11.6666H11.0833V5.83329H2.91667V11.6666Z" fill="#B4B4B4"/>
</svg>
