<svg width="60" height="60" viewBox="0 0 60 60" fill="none" xmlns="http://www.w3.org/2000/svg">
<path d="M12.5 7.5C9.7375 7.5 7.5 9.7375 7.5 12.5V47.5C7.5 50.2625 9.7375 52.5 12.5 52.5H31.9482C30.6682 51.0775 30.0049 49.2975 30.0049 47.5H12.5V22.5H47.5V30C49.37 30 51.12 30.7057 52.5 31.9482V27.5V12.5C52.5 9.7375 50.2625 7.5 47.5 7.5H12.5ZM12.5 12.5H47.5V17.5H12.5V12.5ZM17.5 27.5V32.5H22.5V27.5H17.5ZM27.5 27.5V32.5H41.8994L42.5 31.9482V27.5H27.5ZM47.4609 35C46.8115 35.0104 46.1916 35.273 45.7324 35.7324L43.9648 37.5H40C39.337 37.5001 38.7011 37.7635 38.2323 38.2323C37.7635 38.7011 37.5001 39.337 37.5 40V43.9648L35.7324 45.7324C35.2638 46.2013 35.0005 46.8371 35.0005 47.5C35.0005 48.1629 35.2638 48.7987 35.7324 49.2676L37.5 51.0352V55C37.5001 55.663 37.7635 56.2989 38.2323 56.7677C38.7011 57.2365 39.337 57.4999 40 57.5H43.9648L45.7324 59.2676C46.2013 59.7362 46.8371 59.9995 47.5 59.9995C48.1629 59.9995 48.7987 59.7362 49.2676 59.2676L51.0352 57.5H55C55.663 57.4999 56.2989 57.2365 56.7677 56.7677C57.2365 56.2989 57.4999 55.663 57.5 55V51.0352L59.2676 49.2676C59.7362 48.7987 59.9995 48.1629 59.9995 47.5C59.9995 46.8371 59.7362 46.2013 59.2676 45.7324L57.5 43.9648V40C57.4999 39.337 57.2365 38.7011 56.7677 38.2323C56.2989 37.7635 55.663 37.5001 55 37.5H51.0352L49.2676 35.7324C49.0308 35.4956 48.7489 35.3087 48.4386 35.1829C48.1282 35.0571 47.7958 34.9949 47.4609 35ZM17.5 37.5V42.5H22.5V37.5H17.5ZM27.5 37.5V42.5H31.9482C32.0232 42.4 32.1021 42.3021 32.2021 42.2021L32.5 41.8994V40C32.5 39.125 32.6492 38.275 32.9492 37.5H27.5ZM47.5 41.0352L48.2324 41.7676C48.7012 42.2364 49.337 42.4999 50 42.5H52.5V45C52.5001 45.663 52.7636 46.2988 53.2324 46.7676L53.9648 47.5L53.2324 48.2324C52.7636 48.7012 52.5001 49.337 52.5 50V52.5H50C49.337 52.5001 48.7012 52.7636 48.2324 53.2324L47.5 53.9648L46.7676 53.2324C46.2988 52.7636 45.663 52.5001 45 52.5H42.5V50C42.4999 49.337 42.2364 48.7012 41.7676 48.2324L41.0352 47.5L41.7676 46.7676C42.2364 46.2988 42.4999 45.663 42.5 45V42.5H45C45.663 42.4999 46.2988 42.2364 46.7676 41.7676L47.5 41.0352Z" fill="#00060C"/>
</svg>
