<svg width="37" height="37" viewBox="0 0 37 37" fill="none" xmlns="http://www.w3.org/2000/svg">
<path d="M25.5456 33.9166C25.9551 33.919 26.3609 33.8398 26.7394 33.6836C27.1179 33.5275 27.4615 33.2975 27.7502 33.0071L31.9281 28.8291C32.2153 28.5403 32.3764 28.1496 32.3764 27.7423C32.3764 27.335 32.2153 26.9442 31.9281 26.6554L25.7615 20.4887C25.4726 20.2016 25.0819 20.0404 24.6746 20.0404C24.2673 20.0404 23.8766 20.2016 23.5877 20.4887L21.121 22.94C19.4133 22.4846 17.8316 21.6464 16.496 20.4887C15.3415 19.151 14.5036 17.5701 14.0448 15.8637L16.496 13.3971C16.7832 13.1082 16.9444 12.7175 16.9444 12.3102C16.9444 11.9029 16.7832 11.5122 16.496 11.2233L10.3294 5.05664C10.0405 4.7695 9.64979 4.60834 9.24251 4.60834C8.83522 4.60834 8.44448 4.7695 8.15563 5.05664L3.99313 9.24997C3.70273 9.53864 3.47273 9.88225 3.31656 10.2608C3.1604 10.6393 3.08118 11.0451 3.08355 11.4546C3.22341 17.3781 5.59041 23.0314 9.71271 27.2875C13.9688 31.4098 19.6221 33.7768 25.5456 33.9166ZM9.25021 8.34039L13.2431 12.3333L11.2544 14.3221C11.066 14.4985 10.925 14.7194 10.8442 14.9645C10.7634 15.2096 10.7454 15.4711 10.7919 15.725C11.3681 18.3001 12.5881 20.6871 14.3377 22.6625C16.3116 24.4143 18.6991 25.6346 21.2752 26.2083C21.5252 26.2606 21.7843 26.2499 22.0292 26.1772C22.2741 26.1046 22.4971 25.9722 22.6781 25.7921L24.6669 23.7571L28.6598 27.75L25.5765 30.8333C20.4639 30.7017 15.5857 28.6613 11.9019 25.1137C8.34512 21.4284 6.29886 16.5438 6.16688 11.4237L9.25021 8.34039ZM30.8335 16.9583H33.9169C33.9569 15.1253 33.6253 13.3031 32.9422 11.6016C32.259 9.90018 31.2385 8.35464 29.942 7.05818C28.6455 5.76171 27.1 4.74116 25.3985 4.05803C23.6971 3.3749 21.8749 3.04333 20.0419 3.08331V6.16664C21.4724 6.11716 22.8978 6.36245 24.2295 6.88727C25.5612 7.41209 26.7707 8.20522 27.7828 9.21735C28.795 10.2295 29.5881 11.439 30.1129 12.7707C30.6377 14.1024 30.883 15.5278 30.8335 16.9583Z" fill="white"/>
<path d="M20.0417 12.3333C23.2792 12.3333 24.6667 13.7208 24.6667 16.9583H27.7501C27.7501 11.9942 25.0059 9.25 20.0417 9.25V12.3333Z" fill="white"/>
</svg>
