<svg width="60" height="60" viewBox="0 0 60 60" fill="none" xmlns="http://www.w3.org/2000/svg">
<g clip-path="url(#clip0_161_2056)">
<path d="M30 5C16.215 5 5 16.215 5 30C5 43.785 16.215 55 30 55C30.805 55 31.5978 54.9529 32.3828 54.8779C31.1628 53.4704 29.9626 51.8187 29.0576 49.9512C18.4676 49.4537 10 40.71 10 30C10 18.9725 18.9725 10 30 10C41.0275 10 50 18.9725 50 30C50 30.055 49.9902 30.1061 49.9902 30.1611C50.5777 30.0661 51.168 30 51.748 30H51.7578C52.8678 30.0025 53.9406 30.1646 54.9756 30.4346C54.9781 30.2871 55 30.1475 55 30C55 16.215 43.785 5 30 5ZM27.5 15V28.9648L18.2324 38.2324L21.7676 41.7676L32.5 31.0352V15H27.5ZM40.752 35C37.402 35.005 34.8118 36.9895 33.3643 39.917C32.7743 41.112 32.5174 42.2925 32.5049 43.4375C32.4499 48.7125 37.6339 53.2603 39.8389 55.1953L40.2881 55.5859C42.1281 57.2534 46.2549 60 46.2549 60C46.2549 60 50.3768 57.2509 52.2168 55.5859L52.6611 55.1953C54.8661 53.2603 60.055 48.7125 60 43.4375C59.99 42.2925 59.7306 41.112 59.1406 39.917C57.6956 36.9895 55.1029 35.005 51.7529 35C49.6404 34.9975 47.1999 36.251 46.2549 37.666C45.3949 36.251 42.8645 34.9975 40.752 35Z" fill="#00060C"/>
</g>
<defs>
<clipPath id="clip0_161_2056">
<rect width="60" height="60" fill="white"/>
</clipPath>
</defs>
</svg>
