<svg width="37" height="37" viewBox="0 0 37 37" fill="none" xmlns="http://www.w3.org/2000/svg">
<path d="M3.08301 9.24935C3.08301 8.4316 3.40786 7.64734 3.9861 7.0691C4.56433 6.49087 5.34859 6.16602 6.16634 6.16602H30.833C31.6508 6.16602 32.435 6.49087 33.0133 7.0691C33.5915 7.64734 33.9163 8.4316 33.9163 9.24935V27.7493C33.9163 28.5671 33.5915 29.3514 33.0133 29.9296C32.435 30.5078 31.6508 30.8327 30.833 30.8327H6.16634C5.34859 30.8327 4.56433 30.5078 3.9861 29.9296C3.40786 29.3514 3.08301 28.5671 3.08301 27.7493V9.24935Z" stroke="white" stroke-width="4" stroke-linecap="round" stroke-linejoin="round"/>
<path d="M3.08301 12.334L14.6471 21.5855C15.7405 22.4604 17.0993 22.9371 18.4997 22.9371C19.9001 22.9371 21.2588 22.4604 22.3523 21.5855L33.9163 12.334" stroke="white" stroke-width="4" stroke-linejoin="round"/>
</svg>
