<svg width="19" height="19" viewBox="0 0 19 19" fill="none" xmlns="http://www.w3.org/2000/svg">
<path d="M18.3709 9.29812C17.6725 7.49173 16.4602 5.92955 14.8836 4.80468C13.3071 3.6798 11.4356 3.04153 9.50024 2.96875C7.56492 3.04153 5.69334 3.6798 4.11682 4.80468C2.54031 5.92955 1.32796 7.49173 0.629611 9.29812C0.582447 9.42858 0.582447 9.57142 0.629611 9.70188C1.32796 11.5083 2.54031 13.0704 4.11682 14.1953C5.69334 15.3202 7.56492 15.9585 9.50024 16.0312C11.4356 15.9585 13.3071 15.3202 14.8836 14.1953C16.4602 13.0704 17.6725 11.5083 18.3709 9.70188C18.418 9.57142 18.418 9.42858 18.3709 9.29812ZM9.50024 14.8438C6.35336 14.8438 3.02836 12.5103 1.82305 9.5C3.02836 6.48969 6.35336 4.15625 9.50024 4.15625C12.6471 4.15625 15.9721 6.48969 17.1774 9.5C15.9721 12.5103 12.6471 14.8438 9.50024 14.8438Z" fill="url(#paint0_linear_40_1461)"/>
<path d="M9.5 5.9375C8.79541 5.9375 8.10663 6.14644 7.52078 6.53789C6.93493 6.92934 6.47832 7.48573 6.20868 8.13669C5.93904 8.78765 5.86849 9.50395 6.00595 10.195C6.14341 10.8861 6.48271 11.5208 6.98093 12.0191C7.47916 12.5173 8.11393 12.8566 8.80499 12.994C9.49605 13.1315 10.2123 13.061 10.8633 12.7913C11.5143 12.5217 12.0707 12.0651 12.4621 11.4792C12.8536 10.8934 13.0625 10.2046 13.0625 9.5C13.0625 8.55517 12.6872 7.64903 12.0191 6.98093C11.351 6.31283 10.4448 5.9375 9.5 5.9375ZM9.5 11.875C9.03027 11.875 8.57109 11.7357 8.18052 11.4747C7.78996 11.2138 7.48555 10.8428 7.30579 10.4089C7.12603 9.9749 7.079 9.49737 7.17064 9.03666C7.26228 8.57596 7.48847 8.15277 7.82062 7.82062C8.15277 7.48847 8.57596 7.26227 9.03666 7.17063C9.49737 7.07899 9.9749 7.12603 10.4089 7.30579C10.8428 7.48554 11.2138 7.78995 11.4747 8.18052C11.7357 8.57109 11.875 9.03027 11.875 9.5C11.875 10.1299 11.6248 10.734 11.1794 11.1794C10.734 11.6248 10.1299 11.875 9.5 11.875Z" fill="url(#paint1_linear_40_1461)"/>
<defs>
<linearGradient id="paint0_linear_40_1461" x1="0.594238" y1="9.5" x2="21.41" y2="9.5" gradientUnits="userSpaceOnUse">
<stop stop-color="#709DFF"/>
<stop offset="0.9999" stop-color="#125DFF" stop-opacity="0.914896"/>
<stop offset="1" stop-color="#4E86FF"/>
</linearGradient>
<linearGradient id="paint1_linear_40_1461" x1="5.9375" y1="9.5" x2="14.2641" y2="9.5" gradientUnits="userSpaceOnUse">
<stop stop-color="#709DFF"/>
<stop offset="0.9999" stop-color="#125DFF" stop-opacity="0.914896"/>
<stop offset="1" stop-color="#4E86FF"/>
</linearGradient>
</defs>
</svg>
