<svg width="52" height="52" viewBox="0 0 52 52" fill="none" xmlns="http://www.w3.org/2000/svg">
<path d="M46.0569 23.7507C47.0839 25.094 47.0839 26.9075 46.0569 28.2487C42.8221 32.4715 35.0611 41.1663 26.0001 41.1663C16.9391 41.1663 9.17811 32.4715 5.94327 28.2487C5.4436 27.6055 5.17236 26.8142 5.17236 25.9997C5.17236 25.1852 5.4436 24.3939 5.94327 23.7507C9.17811 19.5278 16.9391 10.833 26.0001 10.833C35.0611 10.833 42.8221 19.5278 46.0569 23.7507V23.7507Z" stroke="white" stroke-width="4" stroke-linecap="round" stroke-linejoin="round"/>
<path d="M26 32.5C29.5899 32.5 32.5 29.5899 32.5 26C32.5 22.4101 29.5899 19.5 26 19.5C22.4101 19.5 19.5 22.4101 19.5 26C19.5 29.5899 22.4101 32.5 26 32.5Z" stroke="white" stroke-width="4" stroke-linecap="round" stroke-linejoin="round"/>
</svg>
