<svg width="13" height="15" viewBox="0 0 13 15" fill="none" xmlns="http://www.w3.org/2000/svg">
<path d="M6.5 8.125C7.53553 8.125 8.375 7.28553 8.375 6.25C8.375 5.21447 7.53553 4.375 6.5 4.375C5.46447 4.375 4.625 5.21447 4.625 6.25C4.625 7.28553 5.46447 8.125 6.5 8.125Z" stroke="#647589" stroke-width="1.2" stroke-linecap="round" stroke-linejoin="round"/>
<path d="M6.5 1.25C5.17392 1.25 3.90215 1.77678 2.96447 2.71447C2.02678 3.65215 1.5 4.92392 1.5 6.25C1.5 7.4325 1.75125 8.20625 2.4375 9.0625L6.5 13.75L10.5625 9.0625C11.2488 8.20625 11.5 7.4325 11.5 6.25C11.5 4.92392 10.9732 3.65215 10.0355 2.71447C9.09785 1.77678 7.82608 1.25 6.5 1.25V1.25Z" stroke="#647589" stroke-width="1.2" stroke-linecap="round" stroke-linejoin="round"/>
</svg>
