<svg width="60" height="60" viewBox="0 0 60 60" fill="none" xmlns="http://www.w3.org/2000/svg">
<path d="M41.25 7.5C34.0125 7.5 30 12.725 30 12.725C30 12.725 25.9875 7.5 18.75 7.5C11.155 7.5 5 13.655 5 21.25C5 35 30 52.5 30 52.5C30 52.5 55 35 55 21.25C55 13.655 48.845 7.5 41.25 7.5ZM30 46.295C21.2925 39.6125 10 28.515 10 21.25C10 16.425 13.925 12.5 18.75 12.5C24.755 12.5 30 19.7675 30 19.7675C30 19.7675 35.35 12.5 41.25 12.5C46.075 12.5 50 16.425 50 21.25C50 28.515 38.7075 39.6125 30 46.295Z" fill="#00060C"/>
</svg>
