<svg width="60" height="60" viewBox="0 0 60 60" fill="none" xmlns="http://www.w3.org/2000/svg">
<path d="M26.25 2.5C21.4175 2.5 17.5 6.4175 17.5 11.25C17.5 12.909 17.9871 14.4448 18.7891 15.7666C11.3426 17.6734 7.41642 22.9004 5.84961 27.6514C5.57732 27.552 5.28984 27.5008 5 27.5C4.33696 27.5 3.70107 27.7634 3.23223 28.2322C2.76339 28.7011 2.5 29.337 2.5 30C2.5 30.663 2.76339 31.2989 3.23223 31.7678C3.70107 32.2366 4.33696 32.5 5 32.5C5 35.41 5.97805 38.3759 7.68555 41.1084L9.65332 52.9102C9.85332 54.1152 10.8966 55 12.1191 55H17.8809C19.1034 55 20.1467 54.1177 20.3467 52.9102L20.6445 51.123C23.177 51.9855 25.9 52.5 28.75 52.5C30.4875 52.5 32.1737 52.3572 33.8037 52.0947L34.8193 53.7842C35.2718 54.5392 36.0829 55 36.9629 55H42.5C44.0775 55 45.2587 53.5592 44.9512 52.0117L44.2041 48.2715C46.7091 46.6865 48.7505 44.7225 50.1855 42.5H53.0518C54.1993 42.5 55.1961 41.7205 55.4736 40.6055L56.9385 34.7461C57.2535 33.4786 56.5427 32.1801 55.3027 31.7676L51.7334 30.5762C51.0959 28.6312 50.0236 26.6006 48.4961 24.6631C49.3386 21.9306 50 18.6325 50 15L36.0645 16.5479C35.2851 16.3116 34.4723 16.0961 33.6328 15.9082C34.4871 14.557 35 12.9669 35 11.25C35 6.4175 31.0825 2.5 26.25 2.5ZM26.25 7.5C28.3175 7.5 30 9.1825 30 11.25C30 13.3175 28.3175 15 26.25 15C24.1825 15 22.5 13.3175 22.5 11.25C22.5 9.1825 24.1825 7.5 26.25 7.5ZM25 20C28.46 20 31.6943 20.448 34.6143 21.333L35.5957 21.6309L36.6162 21.5186L44.3848 20.6543C44.2023 21.4968 43.9807 22.3459 43.7207 23.1934L42.9492 25.6982L44.5703 27.7588C45.6653 29.1488 46.5048 30.6613 46.9873 32.1338L47.7686 34.5264L50.1562 35.3223L51.5283 35.7764L51.0938 37.5H50.1807H47.4609L45.9814 39.7852C44.9514 41.3802 43.4133 42.8554 41.5283 44.0479L38.623 45.8838L39.2969 49.2529L39.4482 50H38.3789L38.0908 49.5215L36.3525 46.6211L33.0127 47.1533C31.5877 47.3833 30.155 47.5 28.75 47.5C26.5975 47.5 24.4157 47.1266 22.2607 46.3916L16.6846 44.4922L15.7666 50H14.2334L12.6172 40.2881L12.4512 39.3066L11.9238 38.4619C10.6638 36.4444 10 34.3825 10 32.5C10 32.375 10.4075 20 25 20ZM40 30C38.62 30 37.5 31.12 37.5 32.5C37.5 33.88 38.62 35 40 35C41.38 35 42.5 33.88 42.5 32.5C42.5 31.12 41.38 30 40 30Z" fill="#00060C"/>
</svg>
