<svg width="138" height="48" viewBox="0 0 138 48" fill="none" xmlns="http://www.w3.org/2000/svg">
<path d="M137.524 43.9433C136.293 44.2891 135.038 44.7872 133.744 45.0442C115.803 47.5764 97.7688 48.2937 79.7662 46.4344C76.8462 46.1116 73.7987 45.6115 71.0424 44.7679C66.3552 43.2945 65.4066 39.5399 69.1043 36.0784C72.6245 32.7442 76.5519 29.7898 80.2882 26.5694C82.112 24.991 84.0882 23.4376 84.0926 20.0741C82.2891 19.6216 80.5357 18.8644 78.7072 18.5643C74.7205 18.0665 70.7339 17.5687 66.6722 17.528C51.1486 17.2491 35.5363 17.0339 19.1371 16.846C23.9586 21.3145 31.0904 20.7638 34.3906 25.9215C34.2519 26.2899 34.1131 26.6583 33.8858 27.0904C32.5781 26.9541 31.2204 27.1224 30.0515 26.6176C21.4253 23.4024 12.7354 20.0985 4.0456 16.7945C2.20347 16.101 0.0179331 15.1164 0.545423 12.8559C0.85918 11.4208 2.20087 9.91981 3.53122 8.96458C6.96511 6.63335 10.6787 4.5045 14.24 2.35065C15.1906 1.80252 16.0775 1.16569 17.0417 1.011C18.1583 0.881311 19.1749 1.36111 20.3052 1.62486C20.0415 2.75514 20.1848 4.26519 19.539 4.86334C18.0199 6.49174 16.0937 7.74037 14.2313 9.07769C13.6104 9.52347 12.9646 10.1216 11.2795 11.3316C16.6102 11.2676 20.8242 11.3333 24.9746 11.3103C38.6698 11.2891 52.3012 11.1792 65.9714 11.3104C70.4902 11.4261 75.0227 11.9353 79.5302 12.5968C81.5997 12.8583 83.5942 13.5768 85.5637 14.4477C89.8461 16.4806 91.3154 20.3989 88.8504 24.4539C86.8402 27.6447 84.1181 30.4057 81.3961 33.1667C79.2312 35.3933 76.6842 37.0877 73.3277 39.901C76.6798 40.4512 78.788 40.9537 81.0099 41.2401C95.1919 43.02 109.28 42.9852 123.533 42.4295C127.074 42.3065 130.526 42.2472 134.042 42.2765C135.286 42.3242 136.455 42.829 137.737 43.1178C137.56 43.2451 137.574 43.6386 137.524 43.9433Z" fill="white"/>
</svg>
