<svg width="138" height="48" viewBox="0 0 138 48" fill="none" xmlns="http://www.w3.org/2000/svg">
<path d="M0.53111 4.37816C1.76049 4.02912 3.01446 3.52763 4.30776 3.26712C22.2418 0.686941 40.2741 -0.0786851 58.2816 1.73241C61.2025 2.04736 64.2513 2.53936 67.0099 3.37555C71.701 4.83641 72.6596 8.58848 68.9712 12.0599C65.4599 15.4034 61.5405 18.3683 57.8128 21.5988C55.9932 23.182 54.0212 24.7407 54.0258 28.1042C55.8305 28.5518 57.586 29.3044 59.4152 29.5996C63.4032 30.0867 67.3912 30.5739 71.453 30.6037C86.9773 30.841 102.59 31.0144 118.99 31.1584C114.156 26.7028 107.026 27.2726 103.712 22.1238C103.85 21.755 103.987 21.3862 104.214 20.9535C105.522 21.0864 106.879 20.9144 108.049 21.416C116.684 24.6082 125.383 27.8888 134.081 31.1694C135.925 31.858 138.113 32.8368 137.592 35.0987C137.282 36.5346 135.944 38.0392 134.617 38.998C131.189 41.3384 127.481 43.4772 123.926 45.6406C122.977 46.1913 122.091 46.8305 121.127 46.9877C120.011 47.1204 118.993 46.6433 117.862 46.3826C118.123 45.2516 117.976 43.742 118.62 43.1421C120.135 41.5096 122.057 40.2558 123.916 38.9135C124.536 38.4661 125.18 37.8662 126.862 36.6518C121.532 36.73 117.317 36.6756 113.167 36.7097C99.472 36.7675 85.8409 36.9139 72.1704 36.8194C67.6513 36.7158 63.1175 36.2187 58.6083 35.5692C56.538 35.3134 54.5416 34.6002 52.5698 33.7345C48.282 31.7131 46.8022 27.7987 49.2563 23.7371C51.258 20.541 53.9726 17.7727 56.6872 15.0044C58.8462 12.7721 61.3886 11.0709 64.7376 8.24853C61.384 7.70733 59.2744 7.21049 57.0518 6.93002C42.8651 5.18809 28.7767 5.26068 14.526 5.85452C10.9854 5.987 7.53337 6.05556 4.01741 6.0356C2.77331 5.99124 1.60301 5.48959 0.319588 5.20427C0.496625 5.07643 0.481911 4.68303 0.53111 4.37816Z" fill="url(#paint0_linear_19_1244)"/>
<defs>
<linearGradient id="paint0_linear_19_1244" x1="57.9061" y1="-37.0521" x2="84.8122" y2="71.12" gradientUnits="userSpaceOnUse">
<stop stop-color="#FFAD6E"/>
<stop offset="1" stop-color="#FF892F"/>
</linearGradient>
</defs>
</svg>
