<svg width="37" height="37" viewBox="0 0 37 37" fill="none" xmlns="http://www.w3.org/2000/svg">
<path d="M18.5 0L29.374 3.53319L36.0945 12.7832V24.2168L29.374 33.4668L18.5 37L7.62597 33.4668L0.905455 24.2168V12.7832L7.62597 3.53319L18.5 0Z" fill="#4C7CE3"/>
<path d="M12.63 15.25V13.794H15.542V24H13.932V15.25H12.63ZM17.7345 18.764C17.7345 17.1493 18.0052 15.8893 18.5465 14.984C19.0972 14.0693 20.0399 13.612 21.3745 13.612C22.7092 13.612 23.6472 14.0693 24.1885 14.984C24.7392 15.8893 25.0145 17.1493 25.0145 18.764C25.0145 20.3973 24.7392 21.676 24.1885 22.6C23.6472 23.5147 22.7092 23.972 21.3745 23.972C20.0399 23.972 19.0972 23.5147 18.5465 22.6C18.0052 21.676 17.7345 20.3973 17.7345 18.764ZM23.4465 18.764C23.4465 18.008 23.3952 17.3687 23.2925 16.846C23.1992 16.3233 23.0032 15.8987 22.7045 15.572C22.4059 15.236 21.9625 15.068 21.3745 15.068C20.7865 15.068 20.3432 15.236 20.0445 15.572C19.7459 15.8987 19.5452 16.3233 19.4425 16.846C19.3492 17.3687 19.3025 18.008 19.3025 18.764C19.3025 19.548 19.3492 20.206 19.4425 20.738C19.5359 21.27 19.7319 21.6993 20.0305 22.026C20.3385 22.3527 20.7865 22.516 21.3745 22.516C21.9625 22.516 22.4059 22.3527 22.7045 22.026C23.0125 21.6993 23.2132 21.27 23.3065 20.738C23.3999 20.206 23.4465 19.548 23.4465 18.764Z" fill="white"/>
</svg>
