<svg width="40" height="40" viewBox="0 0 40 40" fill="none" xmlns="http://www.w3.org/2000/svg">
<path d="M27.6169 36.6669C28.0595 36.6695 28.4983 36.5838 28.9075 36.415C29.3167 36.2462 29.6881 35.9975 30.0002 35.6836L34.5169 31.1669C34.8273 30.8546 35.0015 30.4322 35.0015 29.9919C35.0015 29.5516 34.8273 29.1292 34.5169 28.8169L27.8502 22.1502C27.5379 21.8398 27.1155 21.6656 26.6752 21.6656C26.2349 21.6656 25.8125 21.8398 25.5002 22.1502L22.8336 24.8002C20.9873 24.308 19.2774 23.4017 17.8336 22.1502C16.5854 20.7041 15.6796 18.995 15.1836 17.1502L17.8336 14.4836C18.144 14.1713 18.3182 13.7489 18.3182 13.3086C18.3182 12.8683 18.144 12.4458 17.8336 12.1336L11.1669 5.4669C10.8546 5.15648 10.4322 4.98225 9.99189 4.98225C9.55158 4.98225 9.12916 5.15648 8.81689 5.4669L4.31688 10.0002C4.00294 10.3123 3.75429 10.6838 3.58546 11.093C3.41663 11.5022 3.33099 11.9409 3.33355 12.3836C3.48476 18.7874 6.04368 24.899 10.5002 29.5002C15.1014 33.9568 21.2131 36.5157 27.6169 36.6669ZM10.0002 9.0169L14.3169 13.3336L12.1669 15.4836C11.9633 15.6743 11.8108 15.9131 11.7234 16.1781C11.636 16.4431 11.6166 16.7258 11.6669 17.0002C12.2898 19.7842 13.6087 22.3646 15.5002 24.5002C17.6341 26.3941 20.2153 27.7134 23.0002 28.3336C23.2705 28.3901 23.5506 28.3785 23.8153 28.3C24.0801 28.2214 24.3211 28.0783 24.5169 27.8836L26.6669 25.6836L30.9836 30.0002L27.6502 33.3336C22.1231 33.1913 16.8494 30.9855 12.8669 27.1502C9.02174 23.1661 6.80957 17.8854 6.66689 12.3502L10.0002 9.0169ZM33.3336 18.3336H36.6669C36.7101 16.3519 36.3517 14.382 35.6131 12.5426C34.8746 10.7032 33.7713 9.03231 32.3697 7.63073C30.9681 6.22914 29.2973 5.12584 27.4579 4.38732C25.6185 3.6488 23.6486 3.29035 21.6669 3.33357V6.6669C23.2134 6.61341 24.7544 6.87859 26.194 7.44596C27.6337 8.01333 28.9413 8.87077 30.0355 9.96497C31.1297 11.0592 31.9871 12.3667 32.5545 13.8064C33.1219 15.2461 33.387 16.7871 33.3336 18.3336Z" fill="#EA5D3F"/>
<path d="M21.6667 13.3333C25.1667 13.3333 26.6667 14.8333 26.6667 18.3333H30.0001C30.0001 12.9667 27.0334 10 21.6667 10V13.3333Z" fill="#EA5D3F"/>
</svg>
