<svg width="50" height="55" viewBox="0 0 50 55" fill="none" xmlns="http://www.w3.org/2000/svg">
<path d="M4.875 45L0.125 28.25C-1.21072e-07 27.75 0.0524998 27.1667 0.2825 26.5C0.5125 25.8333 1.00167 25.375 1.75 25.125L5 24V12.5C5 11.125 5.49 9.9475 6.47 8.9675C7.45 7.9875 8.62667 7.49833 10 7.5H17.5V0H32.5V7.5H40C41.375 7.5 42.5525 7.99 43.5325 8.97C44.5125 9.95 45.0017 11.1267 45 12.5V24L48.25 25.125C49.125 25.4583 49.6458 25.9483 49.8125 26.595C49.9792 27.2417 50 27.7933 49.875 28.25L45.125 45C43.0417 45 41.1458 44.51 39.4375 43.53C37.7292 42.55 36.25 41.3733 35 40C33.75 41.375 32.2708 42.5525 30.5625 43.5325C28.8542 44.5125 27 45.0017 25 45C23 45 21.1458 44.51 19.4375 43.53C17.7292 42.55 16.25 41.3733 15 40C13.75 41.375 12.2708 42.5525 10.5625 43.5325C8.85417 44.5125 6.95833 45.0017 4.875 45ZM0 55V50H5C6.75 50 8.47917 49.7292 10.1875 49.1875C11.8958 48.6458 13.5 47.8333 15 46.75C16.5 47.8333 18.1042 48.625 19.8125 49.125C21.5208 49.625 23.25 49.875 25 49.875C26.75 49.875 28.4792 49.625 30.1875 49.125C31.8958 48.625 33.5 47.8333 35 46.75C36.5 47.8333 38.1042 48.6458 39.8125 49.1875C41.5208 49.7292 43.25 50 45 50H50V55H45C43.25 55 41.5417 54.7917 39.875 54.375C38.2083 53.9583 36.5833 53.3333 35 52.5C33.4167 53.3333 31.7808 53.9583 30.0925 54.375C28.4042 54.7917 26.7067 55 25 55C23.2917 55 21.5933 54.7917 19.905 54.375C18.2167 53.9583 16.5817 53.3333 15 52.5C13.4167 53.3333 11.7917 53.9583 10.125 54.375C8.45833 54.7917 6.75 55 5 55H0ZM10 22.375L25 17.5L40 22.375V12.5H10V22.375Z" fill="white"/>
</svg>
