<svg width="40" height="52" viewBox="0 0 40 52" fill="none" xmlns="http://www.w3.org/2000/svg">
<g clip-path="url(#clip0_85_1940)">
<path d="M21.7813 47.5674L-0.294189 25.3916V29.9219C-0.294189 31.1224 0.17934 32.2777 1.0362 33.1158L18.6019 50.7613C20.3607 52.5281 23.2244 52.5281 24.9833 50.7613L38.9862 36.6947C40.745 34.9279 40.745 32.0511 38.9862 30.2843L21.7813 47.5674Z" fill="#EA5D3F"/>
<path d="M18.6019 39.4363C19.4813 40.3197 20.6313 40.7727 21.7813 40.7727C22.9313 40.7727 24.0813 40.3197 24.9607 39.4363L38.9637 25.3697C40.7225 23.6029 40.7225 20.7261 38.9637 18.9593L21.398 1.31379C20.5637 0.475682 19.4137 0 18.2186 0H4.21561C1.73522 0 -0.294189 2.03864 -0.294189 4.5303V18.5969C-0.294189 19.7974 0.17934 20.9527 1.0362 21.7908L18.6019 39.4363ZM4.21561 4.5303H18.2186L35.7842 22.1758L21.7813 36.2424L4.21561 18.5969V4.5303Z" fill="#EA5D3F"/>
<path d="M9.28933 12.4588C10.846 12.4588 12.108 11.1911 12.108 9.62734C12.108 8.06358 10.846 6.7959 9.28933 6.7959C7.73265 6.7959 6.4707 8.06358 6.4707 9.62734C6.4707 11.1911 7.73265 12.4588 9.28933 12.4588Z" fill="#EA5D3F"/>
</g>
<defs>
<clipPath id="clip0_85_1940">
<rect width="40" height="52" fill="white"/>
</clipPath>
</defs>
</svg>
