<svg width="42" height="52" viewBox="0 0 42 52" fill="none" xmlns="http://www.w3.org/2000/svg">
<g clip-path="url(#clip0_85_1938)">
<path d="M12.7106 31.4167L29.2895 15.1667L12.7106 31.4167ZM14.0922 16.5208H14.1198H14.0922ZM27.908 30.0625H27.9356H27.908ZM40.3422 50.375V7.04167C40.3422 5.60508 39.7599 4.22733 38.7236 3.2115C37.6872 2.19568 36.2815 1.625 34.8159 1.625H7.18428C5.7186 1.625 4.31296 2.19568 3.27658 3.2115C2.24019 4.22733 1.65796 5.60508 1.65796 7.04167V50.375L11.329 44.9583L21.0001 50.375L30.6711 44.9583L40.3422 50.375ZM15.4737 16.5208C15.4737 16.88 15.3282 17.2244 15.0691 17.4784C14.81 17.7323 14.4586 17.875 14.0922 17.875C13.7258 17.875 13.3743 17.7323 13.1152 17.4784C12.8561 17.2244 12.7106 16.88 12.7106 16.5208C12.7106 16.1617 12.8561 15.8172 13.1152 15.5633C13.3743 15.3093 13.7258 15.1667 14.0922 15.1667C14.4586 15.1667 14.81 15.3093 15.0691 15.5633C15.3282 15.8172 15.4737 16.1617 15.4737 16.5208ZM29.2895 30.0625C29.2895 30.4216 29.144 30.7661 28.8849 31.02C28.6258 31.274 28.2744 31.4167 27.908 31.4167C27.5415 31.4167 27.1901 31.274 26.931 31.02C26.6719 30.7661 26.5264 30.4216 26.5264 30.0625C26.5264 29.7034 26.6719 29.3589 26.931 29.105C27.1901 28.851 27.5415 28.7083 27.908 28.7083C28.2744 28.7083 28.6258 28.851 28.8849 29.105C29.144 29.3589 29.2895 29.7034 29.2895 30.0625Z" stroke="#EA5D3F" stroke-width="4" stroke-linecap="round" stroke-linejoin="round"/>
</g>
<defs>
<clipPath id="clip0_85_1938">
<rect width="42" height="52" fill="white"/>
</clipPath>
</defs>
</svg>
