<svg width="48" height="48" viewBox="0 0 48 48" fill="none" xmlns="http://www.w3.org/2000/svg">
<path d="M14.4998 0.25L0.249756 14.5L12.1248 26.375L2.62476 35.875V45.375H12.1248L21.6248 35.875L33.4998 47.75L47.7498 33.5L35.8748 21.625L47.054 10.4458C47.9826 9.51718 47.9826 8.01365 47.054 7.0874L40.9124 0.945801C40.4492 0.482676 39.8412 0.25 39.2332 0.25C38.6252 0.25 38.0171 0.482676 37.554 0.945801L26.3748 12.125L14.4998 0.25ZM39.2332 5.9834L42.0164 8.7666L38.9456 11.8374L36.1624 9.0542L39.2332 5.9834ZM14.4998 6.9668L23.0164 15.4834L15.4832 23.0166L6.96655 14.5L14.4998 6.9668ZM32.804 12.4126L35.5872 15.1958L10.158 40.625H7.37476V37.8418L32.804 12.4126ZM32.5164 24.9834L41.033 33.5L33.4998 41.0332L24.9832 32.5166L32.5164 24.9834Z" fill="#00060C"/>
</svg>
