<svg width="37" height="37" viewBox="0 0 37 37" fill="none" xmlns="http://www.w3.org/2000/svg">
<path d="M18.5 0L29.374 3.53319L36.0945 12.7832V24.2168L29.374 33.4668L18.5 37L7.62597 33.4668L0.905455 24.2168V12.7832L7.62597 3.53319L18.5 0Z" fill="#4C7CE3"/>
<path d="M14.4 19C16.1409 19 17.55 17.6301 17.55 15.9375C17.55 14.2449 16.1409 12.875 14.4 12.875C12.6591 12.875 11.25 14.2449 11.25 15.9375C11.25 17.6301 12.6591 19 14.4 19ZM16.56 19.875H16.3266C15.7416 20.1484 15.0919 20.3125 14.4 20.3125C13.7081 20.3125 13.0612 20.1484 12.4734 19.875H12.24C10.4512 19.875 9 21.2859 9 23.025V23.8125C9 24.5371 9.60469 25.125 10.35 25.125H18.45C19.1953 25.125 19.8 24.5371 19.8 23.8125V23.025C19.8 21.2859 18.3487 19.875 16.56 19.875ZM22.5 19C23.9906 19 25.2 17.8242 25.2 16.375C25.2 14.9258 23.9906 13.75 22.5 13.75C21.0094 13.75 19.8 14.9258 19.8 16.375C19.8 17.8242 21.0094 19 22.5 19ZM23.85 19.875H23.7431C23.3522 20.0062 22.9387 20.0938 22.5 20.0938C22.0612 20.0938 21.6478 20.0062 21.2569 19.875H21.15C20.5763 19.875 20.0475 20.0363 19.5834 20.2961C20.2697 21.0152 20.7 21.9695 20.7 23.025V24.075C20.7 24.1352 20.6859 24.1926 20.6831 24.25H25.65C26.3953 24.25 27 23.6621 27 22.9375C27 21.2449 25.5909 19.875 23.85 19.875Z" fill="white"/>
</svg>
