<svg width="41" height="40" viewBox="0 0 41 40" fill="none" xmlns="http://www.w3.org/2000/svg">
<path fill-rule="evenodd" clip-rule="evenodd" d="M20.9806 0C9.9241 0 0.96106 8.9543 0.96106 20C0.96106 31.0457 9.9241 40 20.9806 40C32.037 40 41.0001 31.0457 41.0001 20C41.0001 8.9543 32.037 0 20.9806 0ZM29.3234 13.1244C30.2422 13.3763 30.9658 14.1185 31.2114 15.061C31.6576 16.7692 31.6576 20.3333 31.6576 20.3333C31.6576 20.3333 31.6576 23.8973 31.2114 25.6056C30.9658 26.5482 30.2422 27.2903 29.3234 27.5423C27.6582 28 20.9806 28 20.9806 28C20.9806 28 14.3029 28 12.6376 27.5423C11.7188 27.2903 10.9952 26.5482 10.7496 25.6056C10.3035 23.8973 10.3035 20.3333 10.3035 20.3333C10.3035 20.3333 10.3035 16.7692 10.7496 15.061C10.9952 14.1185 11.7188 13.3763 12.6376 13.1244C14.3029 12.6667 20.9806 12.6667 20.9806 12.6667C20.9806 12.6667 27.6582 12.6667 29.3234 13.1244Z" fill="white"/>
<path d="M18.9786 24.0002V17.3335L24.3172 20.667L18.9786 24.0002Z" fill="white"/>
</svg>
