<svg width="60" height="60" viewBox="0 0 60 60" fill="none" xmlns="http://www.w3.org/2000/svg">
<path d="M9.875 47L5.125 30.25C5 29.75 5.0525 29.1667 5.2825 28.5C5.5125 27.8333 6.00167 27.375 6.75 27.125L10 26V14.5C10 13.125 10.49 11.9475 11.47 10.9675C12.45 9.9875 13.6267 9.49833 15 9.5H22.5V2H37.5V9.5H45C46.375 9.5 47.5525 9.99 48.5325 10.97C49.5125 11.95 50.0017 13.1267 50 14.5V26L53.25 27.125C54.125 27.4583 54.6458 27.9483 54.8125 28.595C54.9792 29.2417 55 29.7933 54.875 30.25L50.125 47C48.0417 47 46.1458 46.51 44.4375 45.53C42.7292 44.55 41.25 43.3733 40 42C38.75 43.375 37.2708 44.5525 35.5625 45.5325C33.8542 46.5125 32 47.0017 30 47C28 47 26.1458 46.51 24.4375 45.53C22.7292 44.55 21.25 43.3733 20 42C18.75 43.375 17.2708 44.5525 15.5625 45.5325C13.8542 46.5125 11.9583 47.0017 9.875 47ZM5 57V52H10C11.75 52 13.4792 51.7292 15.1875 51.1875C16.8958 50.6458 18.5 49.8333 20 48.75C21.5 49.8333 23.1042 50.625 24.8125 51.125C26.5208 51.625 28.25 51.875 30 51.875C31.75 51.875 33.4792 51.625 35.1875 51.125C36.8958 50.625 38.5 49.8333 40 48.75C41.5 49.8333 43.1042 50.6458 44.8125 51.1875C46.5208 51.7292 48.25 52 50 52H55V57H50C48.25 57 46.5417 56.7917 44.875 56.375C43.2083 55.9583 41.5833 55.3333 40 54.5C38.4167 55.3333 36.7808 55.9583 35.0925 56.375C33.4042 56.7917 31.7067 57 30 57C28.2917 57 26.5933 56.7917 24.905 56.375C23.2167 55.9583 21.5817 55.3333 20 54.5C18.4167 55.3333 16.7917 55.9583 15.125 56.375C13.4583 56.7917 11.75 57 10 57H5ZM15 24.375L30 19.5L45 24.375V14.5H15V24.375Z" fill="white"/>
</svg>
